<mxfile host="app.diagrams.net" agent="Mozilla/5.0 (X11; Linux x86_64) AppleWebKit/537.36 (KHTML, like Gecko) Chrome/139.0.0.0 Safari/537.36" version="28.1.0">
  <diagram name="Page-1" id="PL1o1TwMI5uvTTrZmBvK">
    <mxGraphModel dx="1144" dy="662" grid="1" gridSize="10" guides="1" tooltips="1" connect="1" arrows="1" fold="1" page="1" pageScale="1" pageWidth="850" pageHeight="1100" math="0" shadow="0">
      <root>
        <mxCell id="0" />
        <mxCell id="1" parent="0" />
        <mxCell id="4IdkoRzUc8pHb2OUEaS2-9" style="rounded=0;orthogonalLoop=1;jettySize=auto;html=1;exitX=1;exitY=1;exitDx=0;exitDy=0;entryX=0;entryY=0;entryDx=0;entryDy=0;" edge="1" parent="1" source="4IdkoRzUc8pHb2OUEaS2-1" target="4IdkoRzUc8pHb2OUEaS2-3">
          <mxGeometry relative="1" as="geometry" />
        </mxCell>
        <mxCell id="4IdkoRzUc8pHb2OUEaS2-1" value="&lt;font style=&quot;font-size: 24px;&quot;&gt;7&lt;/font&gt;" style="ellipse;whiteSpace=wrap;html=1;aspect=fixed;" vertex="1" parent="1">
          <mxGeometry x="380" y="80" width="80" height="80" as="geometry" />
        </mxCell>
        <mxCell id="4IdkoRzUc8pHb2OUEaS2-10" style="rounded=0;orthogonalLoop=1;jettySize=auto;html=1;exitX=0;exitY=1;exitDx=0;exitDy=0;entryX=0.5;entryY=0;entryDx=0;entryDy=0;" edge="1" parent="1" source="4IdkoRzUc8pHb2OUEaS2-2" target="4IdkoRzUc8pHb2OUEaS2-4">
          <mxGeometry relative="1" as="geometry" />
        </mxCell>
        <mxCell id="4IdkoRzUc8pHb2OUEaS2-11" style="rounded=0;orthogonalLoop=1;jettySize=auto;html=1;exitX=1;exitY=1;exitDx=0;exitDy=0;entryX=0.5;entryY=0;entryDx=0;entryDy=0;" edge="1" parent="1" source="4IdkoRzUc8pHb2OUEaS2-2" target="4IdkoRzUc8pHb2OUEaS2-5">
          <mxGeometry relative="1" as="geometry" />
        </mxCell>
        <mxCell id="4IdkoRzUc8pHb2OUEaS2-2" value="&lt;font style=&quot;font-size: 24px;&quot;&gt;3&lt;/font&gt;" style="ellipse;whiteSpace=wrap;html=1;aspect=fixed;" vertex="1" parent="1">
          <mxGeometry x="220" y="240" width="80" height="80" as="geometry" />
        </mxCell>
        <mxCell id="4IdkoRzUc8pHb2OUEaS2-12" style="rounded=0;orthogonalLoop=1;jettySize=auto;html=1;exitX=1;exitY=1;exitDx=0;exitDy=0;entryX=0.5;entryY=0;entryDx=0;entryDy=0;" edge="1" parent="1" source="4IdkoRzUc8pHb2OUEaS2-3" target="4IdkoRzUc8pHb2OUEaS2-6">
          <mxGeometry relative="1" as="geometry" />
        </mxCell>
        <mxCell id="4IdkoRzUc8pHb2OUEaS2-3" value="&lt;font style=&quot;font-size: 24px;&quot;&gt;9&lt;/font&gt;" style="ellipse;whiteSpace=wrap;html=1;aspect=fixed;" vertex="1" parent="1">
          <mxGeometry x="540" y="240" width="80" height="80" as="geometry" />
        </mxCell>
        <mxCell id="4IdkoRzUc8pHb2OUEaS2-4" value="&lt;font style=&quot;font-size: 24px;&quot;&gt;1&lt;/font&gt;" style="ellipse;whiteSpace=wrap;html=1;aspect=fixed;" vertex="1" parent="1">
          <mxGeometry x="140" y="410" width="80" height="80" as="geometry" />
        </mxCell>
        <mxCell id="4IdkoRzUc8pHb2OUEaS2-5" value="&lt;font style=&quot;font-size: 24px;&quot;&gt;5&lt;/font&gt;" style="ellipse;whiteSpace=wrap;html=1;aspect=fixed;" vertex="1" parent="1">
          <mxGeometry x="300" y="410" width="80" height="80" as="geometry" />
        </mxCell>
        <mxCell id="4IdkoRzUc8pHb2OUEaS2-6" value="&lt;font style=&quot;font-size: 24px;&quot;&gt;11&lt;/font&gt;" style="ellipse;whiteSpace=wrap;html=1;aspect=fixed;" vertex="1" parent="1">
          <mxGeometry x="630" y="410" width="80" height="80" as="geometry" />
        </mxCell>
        <mxCell id="4IdkoRzUc8pHb2OUEaS2-7" style="rounded=0;orthogonalLoop=1;jettySize=auto;html=1;exitX=0;exitY=1;exitDx=0;exitDy=0;entryX=0.775;entryY=0.14;entryDx=0;entryDy=0;entryPerimeter=0;" edge="1" parent="1" source="4IdkoRzUc8pHb2OUEaS2-1" target="4IdkoRzUc8pHb2OUEaS2-2">
          <mxGeometry relative="1" as="geometry" />
        </mxCell>
        <mxCell id="4IdkoRzUc8pHb2OUEaS2-13" value="" style="endArrow=none;startArrow=baseDash;html=1;rounded=0;entryX=0;entryY=1;entryDx=0;entryDy=0;endFill=0;startFill=0;" edge="1" parent="1" target="4IdkoRzUc8pHb2OUEaS2-3">
          <mxGeometry width="50" height="50" relative="1" as="geometry">
            <mxPoint x="510" y="390" as="sourcePoint" />
            <mxPoint x="450" y="320" as="targetPoint" />
          </mxGeometry>
        </mxCell>
      </root>
    </mxGraphModel>
  </diagram>
</mxfile>
